<svg width="79" height="78" viewBox="0 0 79 78" fill="none" xmlns="http://www.w3.org/2000/svg">
<path d="M38.5 70C56.1731 70 70.5 55.6731 70.5 38C70.5 20.3269 56.1731 6 38.5 6C20.8269 6 6.5 20.3269 6.5 38C6.5 55.6731 20.8269 70 38.5 70Z" fill="#E0E8E2"/>
<path d="M32.7147 50.7513C34.7036 51.9428 37.6143 52.9397 38.9483 52.9397C43.0718 52.9397 49.1114 47.1282 49.5723 40.5871C49.5965 40.3926 49.5238 40.1981 49.3782 40.0522C45.6914 35.8698 44.8424 30.5932 44.6727 29.3288C44.7211 29.1343 44.6484 29.037 44.6484 29.037C44.5999 28.9884 44.4543 29.11 44.4058 29.1829C43.8965 29.8638 43.3628 30.3744 42.9505 30.6662C42.7565 30.7878 42.4897 30.7148 42.4169 30.4717C41.859 28.8668 39.8701 27.7482 39.2394 27.4078C39.1181 27.3349 38.9726 27.3349 38.827 27.3835C37.4687 27.8212 29.9981 30.6905 29.0278 39.1768C28.8095 40.9519 28.8581 42.4838 29.052 43.7726C29.6827 48.1251 33.1512 48.6601 34.5095 48.7087C34.7036 48.7087 34.8006 48.9519 34.6551 49.0978C30.2937 51.8941 23.2793 46.423 23.2793 46.423" fill="#FDF8E5"/>
<path d="M32.7147 50.7513C34.7036 51.9428 37.6143 52.9397 38.9483 52.9397C43.0718 52.9397 49.1114 47.1282 49.5723 40.5871C49.5965 40.3926 49.5238 40.1981 49.3782 40.0522C45.6914 35.8698 44.8424 30.5932 44.6727 29.3288C44.7211 29.1343 44.6484 29.037 44.6484 29.037C44.5999 28.9884 44.4543 29.11 44.4058 29.1829C43.8965 29.8638 43.3628 30.3744 42.9505 30.6662C42.7565 30.7878 42.4897 30.7148 42.4169 30.4717C41.859 28.8668 39.8701 27.7482 39.2394 27.4078C39.1181 27.3349 38.9726 27.3349 38.827 27.3835C37.4687 27.8212 29.9981 30.6905 29.0278 39.1768C28.8095 40.9519 28.8581 42.4838 29.052 43.7726C29.6827 48.1251 33.1512 48.6601 34.5095 48.7087C34.7036 48.7087 34.8006 48.9519 34.6551 49.0978C30.2937 51.8941 23.2793 46.423 23.2793 46.423" stroke="#3A643C" stroke-miterlimit="10" stroke-linecap="round" stroke-linejoin="round"/>
<path d="M45.5213 35.9179C50.7324 35.9179 54.9567 31.683 54.9567 26.4589C54.9567 21.2349 50.7324 17 45.5213 17C40.3103 17 36.0859 21.2349 36.0859 26.4589C36.0859 31.683 40.3103 35.9179 45.5213 35.9179Z" stroke="#3A643C" stroke-miterlimit="10" stroke-linecap="round" stroke-linejoin="round"/>
<path d="M54.1312 30.0859L52.9531 32.1275L62.4642 37.6428L63.6422 35.6012L54.1312 30.0859Z" fill="#3A643C"/>
<path d="M26.5876 48.9149C21.6469 54.8724 20.1739 48.9026 20.0041 45.0121C19.8343 41.1215 25.0007 34.7507 26.1165 32.3434C27.2323 29.9604 25.6314 24.9513 31.9863 21.7659C37.2983 19.0912 40.6698 21.7902 41.6158 22.7385C41.7613 22.8844 42.0039 22.8844 42.1494 22.7385C44.866 19.8206 50.1779 23.1276 50.5661 28.8662C50.9784 34.7993 52.9674 36.4285 53.792 37.62C55.3444 39.8814 59.1768 47.6382 55.5141 50.1428C51.8273 52.6716 50.3478 49.5349 50.3478 49.5349C50.3478 49.5349 48.189 51.9421 45.5937 50.9695C45.1814 50.8236 44.8418 50.5561 44.5749 50.2887" stroke="#3A643C" stroke-miterlimit="10" stroke-linecap="round" stroke-linejoin="round"/>
<path d="M44.6717 29.3283C44.6231 29.2798 44.5747 29.2555 44.502 29.207" stroke="#0079AB" stroke-miterlimit="10" stroke-linecap="round" stroke-linejoin="round"/>
<path d="M34.2178 51.5527V56.9995" stroke="#3A643C" stroke-miterlimit="10" stroke-linecap="round" stroke-linejoin="round"/>
<path d="M43.459 51.1641V57" stroke="#3A643C" stroke-miterlimit="10" stroke-linecap="round" stroke-linejoin="round"/>
</svg>
